<svg width="32" height="29" viewBox="0 0 32 29" fill="none" xmlns="http://www.w3.org/2000/svg">
<g clip-path="url(#clip0_56_586)">
<path d="M15.5761 8.39764L5.33331 16.9985V26.2814C5.33331 26.5217 5.42696 26.7522 5.59366 26.9222C5.76036 27.0921 5.98645 27.1876 6.2222 27.1876L12.4477 27.1712C12.6827 27.17 12.9077 27.074 13.0734 26.9041C13.2392 26.7343 13.3322 26.5045 13.3322 26.2649V20.8439C13.3322 20.6035 13.4258 20.373 13.5925 20.203C13.7592 20.0331 13.9853 19.9376 14.2211 19.9376H17.7766C18.0124 19.9376 18.2385 20.0331 18.4052 20.203C18.5719 20.373 18.6655 20.6035 18.6655 20.8439V26.261C18.6652 26.3802 18.6879 26.4984 18.7324 26.6086C18.7769 26.7189 18.8423 26.8192 18.9249 26.9036C19.0075 26.9881 19.1056 27.0551 19.2136 27.1008C19.3216 27.1465 19.4374 27.17 19.5544 27.17L25.7777 27.1876C26.0135 27.1876 26.2396 27.0921 26.4063 26.9222C26.573 26.7522 26.6666 26.5217 26.6666 26.2814V16.9923L16.4261 8.39764C16.3057 8.2987 16.1557 8.24475 16.0011 8.24475C15.8464 8.24475 15.6965 8.2987 15.5761 8.39764ZM31.7555 14.2435L27.1111 10.3404V2.49512C27.1111 2.31485 27.0408 2.14197 26.9158 2.01451C26.7908 1.88704 26.6212 1.81543 26.4444 1.81543H23.3333C23.1565 1.81543 22.9869 1.88704 22.8619 2.01451C22.7369 2.14197 22.6666 2.31485 22.6666 2.49512V6.60779L17.6927 2.43564C17.2154 2.03518 16.6165 1.81623 15.9983 1.81623C15.3801 1.81623 14.7812 2.03518 14.3039 2.43564L0.241089 14.2435C0.173582 14.3004 0.117731 14.3703 0.0767265 14.4492C0.0357221 14.5281 0.0103681 14.6145 0.00211337 14.7034C-0.00614141 14.7922 0.00286476 14.8819 0.0286173 14.9673C0.0543698 15.0526 0.0963639 15.132 0.1522 15.2007L1.56887 16.9566C1.62455 17.0256 1.69304 17.0828 1.77042 17.1248C1.8478 17.1668 1.93254 17.1929 2.01981 17.2014C2.10707 17.21 2.19513 17.2009 2.27895 17.1748C2.36278 17.1486 2.44072 17.1058 2.50831 17.0489L15.5761 6.07537C15.6965 5.97644 15.8464 5.92248 16.0011 5.92248C16.1557 5.92248 16.3057 5.97644 16.4261 6.07537L29.4944 17.0489C29.5619 17.1059 29.6397 17.1487 29.7234 17.1749C29.8071 17.2012 29.8951 17.2104 29.9823 17.2019C30.0695 17.1935 30.1542 17.1677 30.2316 17.1259C30.3089 17.0841 30.3775 17.0271 30.4333 16.9583L31.85 15.2024C31.9057 15.1333 31.9475 15.0535 31.973 14.9678C31.9984 14.8821 32.007 14.7921 31.9983 14.703C31.9895 14.6139 31.9635 14.5274 31.9219 14.4485C31.8802 14.3697 31.8237 14.3 31.7555 14.2435Z" fill="white"/>
</g>
<defs>
<clipPath id="clip0_56_586">
<rect width="32" height="29" fill="white"/>
</clipPath>
</defs>
</svg>
