<svg width="43" height="63" viewBox="0 0 43 63" fill="none" xmlns="http://www.w3.org/2000/svg">
<path d="M1.33039 56.7392C1.14033 56.6097 1.08094 56.3508 1.21161 56.1507C1.34227 55.9624 1.60359 55.9036 1.80553 56.033C1.92431 56.1154 2.05498 56.1978 2.19752 56.2802C3.17155 56.8686 4.08619 57.1629 4.83453 57.1629C5.5116 57.1629 6.06989 56.9039 6.41437 56.3979C6.43812 56.3626 6.46188 56.339 6.46188 56.3155C6.55691 56.1507 6.64006 55.9859 6.68757 55.8212C6.7826 55.4799 6.77072 55.1268 6.62818 54.809C6.48564 54.4677 6.18868 54.15 5.7373 53.8793C5.44033 53.7027 5.06022 53.538 4.60884 53.4085C3.45663 53.0907 2.61326 52.6318 2.15 52.0315C1.65111 51.3607 1.61547 50.5604 2.15 49.5836C2.50636 48.9363 3.23094 48.5361 4.15746 48.4655C4.95332 48.4066 5.91547 48.595 6.8895 49.0893C7.10332 49.1952 7.18647 49.4541 7.07956 49.6542C6.97265 49.866 6.71133 49.9484 6.50939 49.8425C5.6779 49.4188 4.88205 49.2658 4.22873 49.3129C3.59917 49.3599 3.11216 49.6071 2.91022 49.9955C2.55387 50.6428 2.55387 51.1488 2.85083 51.5372C3.18343 51.9844 3.88426 52.3375 4.84641 52.6082C5.36906 52.7494 5.80857 52.9495 6.1768 53.1731C6.7826 53.538 7.18647 53.997 7.40028 54.4913C7.62597 54.9973 7.64973 55.5505 7.49531 56.0683C7.42403 56.3037 7.31713 56.5509 7.17459 56.7745C7.13895 56.8215 7.1152 56.8686 7.10332 56.8922C6.59254 57.6454 5.78481 58.022 4.81078 58.022C3.90801 58.022 2.85083 57.6925 1.73426 57.0216C1.62735 56.9275 1.48481 56.8451 1.33039 56.7392Z" fill="#EA501F"/>
<path d="M8.92065 48.865C8.92065 48.6414 9.11071 48.4648 9.34828 48.4648C9.58585 48.4648 9.7759 48.6414 9.7759 48.865V57.6094C9.7759 57.8331 9.58585 58.0096 9.34828 58.0096C9.11071 58.0096 8.92065 57.8331 8.92065 57.6094V48.865Z" fill="#EA501F"/>
<path d="M9.79961 54.3146C9.64519 54.4911 9.38387 54.5264 9.19381 54.3734C9.01564 54.2204 8.98 53.9615 9.13442 53.7732C9.78774 52.9847 10.5242 52.5022 11.2488 52.2903C11.7714 52.1373 12.2822 52.1255 12.7217 52.2432C13.185 52.3727 13.5888 52.6316 13.8739 53.0318C14.1471 53.4084 14.3016 53.8909 14.3016 54.4676V57.5982C14.3016 57.8336 14.1115 58.0219 13.8739 58.0219C13.6364 58.0219 13.4463 57.8336 13.4463 57.5982V54.4676C13.4463 54.0674 13.3513 53.7497 13.185 53.5143C13.0187 53.2907 12.793 53.1377 12.5079 53.0553C12.2109 52.9729 11.8665 52.9847 11.4982 53.0906C10.9281 53.2671 10.3341 53.6673 9.79961 54.3146Z" fill="#EA501F"/>
<path d="M18.4948 52.1611C19.3145 52.1611 20.0509 52.4907 20.5855 53.0203C21.12 53.5499 21.4526 54.2796 21.4526 55.0916C21.4526 55.9037 21.12 56.6334 20.5855 57.163C20.0509 57.6926 19.3145 58.0221 18.4948 58.0221C17.6752 58.0221 16.9388 57.6926 16.4042 57.163C15.8697 56.6334 15.5371 55.9037 15.5371 55.0916C15.5371 54.2796 15.8697 53.5499 16.4042 53.0203C16.9388 52.4907 17.6871 52.1611 18.4948 52.1611ZM19.9915 53.6087C19.6114 53.2321 19.0769 52.9967 18.4948 52.9967C17.9128 52.9967 17.3901 53.2321 16.9982 53.6087C16.618 53.9853 16.3805 54.515 16.3805 55.0916C16.3805 55.6683 16.618 56.1979 16.9982 56.5745C17.3783 56.9512 17.9128 57.1865 18.4948 57.1865C19.0769 57.1865 19.5995 56.9512 19.9915 56.5745C20.3716 56.1979 20.6092 55.6683 20.6092 55.0916C20.6092 54.515 20.3716 53.9853 19.9915 53.6087Z" fill="#EA501F"/>
<path d="M22.6641 52.5848C22.6641 52.3494 22.8541 52.1611 23.0917 52.1611C23.3293 52.1611 23.5193 52.3494 23.5193 52.5848V53.1144C23.5549 53.0791 23.5787 53.0438 23.6143 53.0203C24.1489 52.4907 24.8853 52.1611 25.7049 52.1611C26.5246 52.1611 27.261 52.4907 27.7956 53.0203C28.3301 53.5499 28.6627 54.2796 28.6627 55.0916C28.6627 55.9037 28.3301 56.6334 27.7956 57.163C27.261 57.6926 26.5246 58.0221 25.7049 58.0221C24.8853 58.0221 24.1489 57.6926 23.6143 57.163C23.5787 57.1277 23.5549 57.0924 23.5193 57.0688V60.9173C23.5193 61.1527 23.3293 61.341 23.0917 61.341C22.8541 61.341 22.6641 61.1527 22.6641 60.9173V52.5848ZM27.1898 53.6087C26.8096 53.2321 26.2751 52.9967 25.6931 52.9967C25.111 52.9967 24.5884 53.2321 24.1964 53.6087C23.8163 53.9853 23.5787 54.515 23.5787 55.0916C23.5787 55.6683 23.8163 56.1979 24.1964 56.5745C24.5765 56.9512 25.111 57.1865 25.6931 57.1865C26.2751 57.1865 26.7978 56.9512 27.1898 56.5745C27.5699 56.1979 27.8074 55.6683 27.8074 55.0916C27.8074 54.515 27.5699 53.9853 27.1898 53.6087Z" fill="#EA501F"/>
<path d="M32.6777 52.1611C33.4022 52.1611 34.0674 52.4436 34.5545 52.9379C34.9583 53.338 35.1246 53.7382 35.2672 54.1619C35.6354 55.3506 34.9346 55.3035 34.7208 55.3035H30.789C30.8246 55.5859 30.8959 55.8449 30.979 56.0802C31.1335 56.4451 31.3592 56.7158 31.6442 56.9041C31.9412 57.0924 32.3213 57.1865 32.7608 57.1865C33.2359 57.1865 33.7942 57.0571 34.4119 56.7982C34.6257 56.704 34.8752 56.8099 34.9702 57.0218C35.0652 57.2336 34.9583 57.4808 34.7445 57.5749C34.0318 57.8692 33.3666 58.0104 32.7727 58.0221C32.1669 58.0339 31.6324 57.8927 31.1929 57.6102C30.7534 57.3278 30.3732 56.9394 30.1951 56.398C29.7912 55.2093 29.7793 54.0324 30.8009 52.9379C31.276 52.4318 31.9531 52.1611 32.6777 52.1611ZM33.9605 53.5381C33.6161 53.2086 33.1647 53.0085 32.6777 53.0085C32.1906 53.0085 31.7393 53.2086 31.3948 53.5381C31.1453 53.7853 30.9434 54.0913 30.8365 54.4443H34.5307C34.4 54.0913 34.21 53.7853 33.9605 53.5381Z" fill="#EA501F"/>
<path d="M39.1633 52.1611C39.8878 52.1611 40.553 52.4436 41.0401 52.9379C41.4439 53.338 41.6102 53.7382 41.7528 54.1619C42.121 55.3506 41.4202 55.3035 41.2064 55.3035H37.2746C37.3102 55.5859 37.3815 55.8449 37.4646 56.0802C37.6191 56.4451 37.8448 56.7158 38.1298 56.9041C38.4268 57.0924 38.8069 57.1865 39.2464 57.1865C39.7215 57.1865 40.2798 57.0571 40.8975 56.7982C41.1113 56.704 41.3608 56.8099 41.4558 57.0218C41.5508 57.2336 41.4439 57.4808 41.2301 57.5749C40.5174 57.8692 39.8522 58.0104 39.2583 58.0221C38.6525 58.0339 38.118 57.8927 37.6785 57.6102C37.239 57.3278 36.8588 56.9394 36.6807 56.398C36.2768 55.2093 36.2649 54.0324 37.2865 52.9379C37.7616 52.4318 38.4387 52.1611 39.1633 52.1611ZM40.4461 53.5381C40.1017 53.2086 39.6503 53.0085 39.1633 53.0085C38.6762 53.0085 38.2249 53.2086 37.8804 53.5381C37.6309 53.7853 37.429 54.0913 37.3221 54.4443H41.0163C40.8856 54.0913 40.6956 53.7853 40.4461 53.5381Z" fill="#EA501F"/>
<path d="M4.33559 13.899H13.2801C13.5533 10.8979 14.3966 8.20275 15.6082 6.11962C17.2118 3.36565 19.4925 1.6709 22.0701 1.6709C24.6478 1.6709 26.9165 3.37742 28.532 6.11962C29.7436 8.19098 30.587 10.8979 30.8602 13.899H39.7928C40.85 13.899 41.8002 14.7581 41.7171 15.8056L39.9234 40.6031C39.6978 43.7101 37.7259 45.4873 34.8632 45.4873H9.27703C6.0936 45.4873 4.40686 43.2864 4.21681 40.6031L2.41128 15.8174C2.34001 14.7699 3.27841 13.899 4.33559 13.899ZM15.5132 13.899H28.6033C28.342 11.298 27.6174 8.99128 26.5839 7.22591C25.3961 5.16632 23.7806 3.88349 22.0701 3.88349C20.3478 3.88349 18.7442 5.16632 17.5326 7.23768C16.4991 8.99128 15.7864 11.3098 15.5132 13.899Z" fill="#EA501F"/>
<path d="M15.5726 36.7904C15.1569 36.5079 15.05 35.9548 15.335 35.5428C15.6201 35.1309 16.1784 35.025 16.5942 35.3074C16.8555 35.484 17.1287 35.6605 17.4256 35.8371C19.5163 37.0964 21.4406 37.7201 23.0442 37.7201C24.4933 37.7201 25.6693 37.1787 26.4176 36.0842C26.4652 36.0018 26.5127 35.9548 26.5245 35.9194C26.7384 35.5781 26.8928 35.2133 26.9997 34.8602C27.2135 34.1305 27.1779 33.3773 26.8809 32.6947C26.5602 31.9768 25.9425 31.2824 24.9803 30.7057C24.3389 30.3173 23.5431 29.976 22.5809 29.7171C20.1339 29.0345 18.3284 28.0695 17.3544 26.7749C16.2853 25.3508 16.2022 23.6325 17.3425 21.5494C18.1027 20.1724 19.6588 19.3132 21.6306 19.1602C23.3292 19.0308 25.3723 19.4309 27.4511 20.4784C27.9024 20.702 28.0806 21.2434 27.8431 21.6906C27.6055 22.1378 27.071 22.3144 26.6196 22.079C24.8497 21.1845 23.1629 20.8432 21.7613 20.9491C20.419 21.0551 19.3975 21.5729 18.9461 22.3967C18.1859 23.7737 18.1977 24.8565 18.8154 25.6803C19.5281 26.6336 21.0129 27.3751 23.0798 27.9518C24.1964 28.2695 25.1466 28.6697 25.9306 29.1404C27.2254 29.9172 28.0925 30.894 28.5558 31.9533C29.0309 33.0478 29.0903 34.2012 28.7696 35.331C28.627 35.8371 28.4013 36.3431 28.0925 36.8374C28.0212 36.9434 27.9737 37.0257 27.9381 37.0846C26.8334 38.697 25.1348 39.4973 23.0679 39.509C21.1317 39.509 18.8748 38.8029 16.4991 37.367C16.2022 37.2023 15.8933 37.014 15.5726 36.7904Z" fill="white"/>
</svg>
