<svg width="30" height="35" viewBox="0 0 30 35" fill="none" xmlns="http://www.w3.org/2000/svg">
<path d="M30 14.3493C27.0518 14.3565 24.176 13.418 21.7788 11.6662V23.8834C21.7779 26.1462 21.1004 28.3547 19.8368 30.2138C18.5732 32.0729 16.7838 33.4938 14.7077 34.2867C12.6317 35.0795 10.368 35.2065 8.21935 34.6505C6.07071 34.0946 4.13955 32.8823 2.68408 31.1757C1.22861 29.4691 0.318205 27.3495 0.0746082 25.1005C-0.168989 22.8514 0.265829 20.5801 1.32092 18.5901C2.37601 16.6001 4.00109 14.9864 5.97885 13.9647C7.9566 12.943 10.1928 12.5621 12.3884 12.8728V19.0176C11.3837 18.695 10.3048 18.7047 9.30582 19.0453C8.30685 19.386 7.43887 20.0402 6.82583 20.9145C6.21279 21.7887 5.88604 22.8384 5.89224 23.9136C5.89845 24.9887 6.23729 26.0344 6.86037 26.9012C7.48346 27.7681 8.35893 28.4118 9.36176 28.7404C10.3646 29.069 11.4435 29.0658 12.4444 28.7311C13.4453 28.3964 14.317 27.7474 14.9351 26.8769C15.5532 26.0063 15.8859 24.9586 15.8859 23.8834V0H21.7788C21.7747 0.508006 21.8164 1.01532 21.9033 1.51553C22.1081 2.63216 22.5339 3.69442 23.1546 4.63732C23.7753 5.58022 24.5779 6.38394 25.5134 6.99932C26.8442 7.89762 28.4045 8.37642 30 8.37607V14.3493Z" fill="#FFF3F3"/>
</svg>
