<svg width="93" height="67" viewBox="0 0 93 67" fill="none" xmlns="http://www.w3.org/2000/svg">
<g clip-path="url(#clip0_56_561)">
<path fill-rule="evenodd" clip-rule="evenodd" d="M46.5082 9.55217C48.4231 8.58075 50.7479 8.05037 52.8719 7.86614L55.2627 7.65399C57.8792 7.42509 60.4983 7.56466 63.1175 7.56466H64.5564V9.02179C64.5564 15.4951 64.5564 21.9685 64.5564 28.4446V29.1871C64.5564 35.8698 59.1695 41.3354 52.5803 41.3354H28.4435V7.56466H29.8797C32.5044 7.56466 35.1126 7.39159 37.7373 7.59537L40.1253 7.7796C42.3951 7.95267 44.4723 8.51096 46.5082 9.55217Z" fill="white"/>
<path fill-rule="evenodd" clip-rule="evenodd" d="M29.8797 9.0217V25.6586V28.4445V29.187V39.8782H40.417H42.0705H52.5803C58.3771 39.8782 63.1175 35.0658 63.1175 29.187V28.4445C63.1175 22.0075 63.1175 15.7295 63.1175 9.0217C60.6002 9.0217 57.9397 8.96029 55.3865 9.10544L52.9957 9.3148C50.6571 9.60511 48.2911 10.1578 46.5 11.2074C44.5631 10.0741 42.4529 9.5102 40.0153 9.23106L37.6272 9.04682C35.0218 8.924 32.3503 9.0217 29.8797 9.0217Z" fill="#5FB74E"/>
<path fill-rule="evenodd" clip-rule="evenodd" d="M32.8621 39.8784H40.417H42.0705H52.5803C55.1499 39.8784 57.5078 38.9321 59.3401 37.3717C57.1996 32.3276 52.2556 28.7964 46.5 28.7964C39.8282 28.7964 34.2514 33.5362 32.8621 39.8784Z" fill="#89C45F"/>
<path fill-rule="evenodd" clip-rule="evenodd" d="M46.5 39.8782L52.7041 39.7833C55.238 39.7833 57.5435 38.8789 59.3401 37.3715C61.6539 35.4342 63.1175 32.4977 63.1175 29.187V28.4445C63.1175 22.0074 63.1175 15.7295 63.1175 9.02169C60.6001 9.02169 57.9397 8.96028 55.3865 9.10543L52.9957 9.31479C50.6571 9.6051 48.2911 10.1578 46.5 11.2074V39.8782Z" fill="#4A9E4B"/>
<path fill-rule="evenodd" clip-rule="evenodd" d="M46.5 39.8784H52.6188C55.1885 39.8784 57.5078 38.9349 59.3401 37.3717C57.2244 32.3834 52.1731 28.8745 46.5 28.7964V39.8784Z" fill="#5FB74E"/>
<path fill-rule="evenodd" clip-rule="evenodd" d="M55.3865 8.09795C54.9298 3.54512 51.1386 0 46.5385 0C41.9357 0 38.1472 3.51442 37.6272 8.03933L40.0153 8.22636C40.439 4.95759 43.1847 2.43134 46.5275 2.43134C49.8702 2.43134 52.6408 4.99946 52.9957 8.30452L55.3865 8.09795Z" fill="white"/>
<path fill-rule="evenodd" clip-rule="evenodd" d="M50.3848 30.2171C49.3448 31.3336 48.3048 32.453 47.2649 33.5696L46.5 34.393L45.7352 33.5696C44.6924 32.453 43.6525 31.3336 42.6125 30.2171L42.0732 29.6364L42.4667 28.947C43.3031 27.487 44.863 26.7026 46.5 26.7026C48.1343 26.7026 49.6942 27.487 50.5306 28.947L50.924 29.6364L50.3848 30.2171Z" fill="#5C5349"/>
<path fill-rule="evenodd" clip-rule="evenodd" d="M49.6199 29.4858C48.58 30.6024 47.54 31.7189 46.5 32.8383C45.46 31.7189 44.4173 30.6024 43.3773 29.4858C44.0349 28.3357 45.2674 27.7663 46.5 27.7691C47.7298 27.7663 48.9624 28.3357 49.6199 29.4858Z" fill="#FDF8B4"/>
<path fill-rule="evenodd" clip-rule="evenodd" d="M49.6199 29.4858C48.58 30.6024 47.54 31.7189 46.5 32.8383V27.7691C47.7298 27.7663 48.9624 28.3357 49.6199 29.4858Z" fill="#FCD066"/>
<path fill-rule="evenodd" clip-rule="evenodd" d="M38.7002 13.2285C43.3636 13.2285 47.1438 17.0667 47.1438 21.7954C47.1438 26.5241 43.3636 30.3623 38.7002 30.3623C34.0369 30.3623 30.2594 26.5241 30.2594 21.7954C30.2594 17.0667 34.0369 13.2285 38.7002 13.2285Z" fill="#5C5349"/>
<path fill-rule="evenodd" clip-rule="evenodd" d="M38.7002 14.6855C42.5684 14.6855 45.7076 17.8706 45.7076 21.7953C45.7076 25.7201 42.5684 28.9023 38.7002 28.9023C34.8292 28.9023 31.6927 25.7201 31.6927 21.7953C31.6927 17.8706 34.8292 14.6855 38.7002 14.6855Z" fill="#EEEFEE"/>
<path fill-rule="evenodd" clip-rule="evenodd" d="M38.7002 14.6855C41.8944 14.6855 44.5879 16.8545 45.4325 19.819C44.5879 22.7835 41.8944 24.9524 38.7002 24.9524C35.506 24.9524 32.8125 22.7835 31.9706 19.819C32.8125 16.8545 35.506 14.6855 38.7002 14.6855Z" fill="#FEFEFE"/>
<path fill-rule="evenodd" clip-rule="evenodd" d="M54.2971 13.2285C58.9604 13.2285 62.7407 17.0667 62.7407 21.7954C62.7407 26.5241 58.9604 30.3623 54.2971 30.3623C49.6364 30.3623 45.8535 26.5269 45.8535 21.7954C45.8535 17.0667 49.6364 13.2285 54.2971 13.2285Z" fill="#5C5349"/>
<path fill-rule="evenodd" clip-rule="evenodd" d="M54.297 14.6855C58.1681 14.6855 61.3045 17.8706 61.3045 21.7953C61.3045 25.7201 58.1681 28.9023 54.297 28.9023C50.4288 28.9023 47.2924 25.7201 47.2924 21.7953C47.2924 17.8706 50.4288 14.6855 54.297 14.6855Z" fill="#EEEFEE"/>
<path fill-rule="evenodd" clip-rule="evenodd" d="M54.297 14.6855C57.4912 14.6855 60.1875 16.8545 61.0293 19.819C60.1875 22.7835 57.4912 24.9524 54.297 24.9524C51.1028 24.9524 48.4093 22.7835 47.5647 19.819C48.4093 16.8545 51.1028 14.6855 54.297 14.6855Z" fill="#FEFEFE"/>
<path fill-rule="evenodd" clip-rule="evenodd" d="M39.5806 17.374C42.0788 17.374 44.1064 19.4285 44.1064 21.9631C44.1064 24.5006 42.0788 26.5551 39.5806 26.5551C37.0797 26.5551 35.0548 24.5006 35.0548 21.9631C35.0548 21.1173 35.2832 20.3246 35.6738 19.6463C35.9985 20.4558 36.7798 21.0252 37.696 21.0252C38.8983 21.0252 39.875 20.0371 39.875 18.8144C39.875 18.2645 39.6797 17.7648 39.3523 17.3796C39.4293 17.374 39.5063 17.374 39.5806 17.374Z" fill="#5C5349"/>
<path fill-rule="evenodd" clip-rule="evenodd" d="M53.4167 17.374C55.9176 17.374 57.9425 19.4285 57.9425 21.9631C57.9425 24.5006 55.9176 26.5551 53.4167 26.5551C50.9185 26.5551 48.8909 24.5006 48.8909 21.9631C48.8909 21.1173 49.1165 20.3246 49.5099 19.6463C49.8345 20.4558 50.6187 21.0252 51.5321 21.0252C52.7371 21.0252 53.7111 20.0371 53.7111 18.8144C53.7111 18.2645 53.5157 17.7648 53.1883 17.3796C53.2654 17.374 53.3396 17.374 53.4167 17.374Z" fill="#5C5349"/>
<path fill-rule="evenodd" clip-rule="evenodd" d="M49.719 60.9733C48.7093 62.0117 47.4987 62.5365 46.0984 62.5365C44.9648 62.5365 44.0019 62.302 43.0197 61.7214V59.3375C43.8121 59.8818 44.8025 60.3982 45.7847 60.3982C47.8261 60.3982 49.0449 58.9718 49.0449 56.9508C49.0449 54.927 47.7849 53.456 45.7407 53.456C44.8273 53.456 44.0872 53.7881 43.5094 54.4553C42.8904 55.1811 42.5685 56.2139 42.5685 57.5817V67H42.4144C41.2892 67 40.3758 66.0732 40.3758 64.9315V57.2272C40.3758 53.9584 42.3457 51.3205 45.7324 51.3205C47.4025 51.3205 48.7616 51.8983 49.7905 53.0652C50.7562 54.151 51.2377 55.5328 51.2377 57.1909C51.2377 58.6676 50.7315 59.9321 49.719 60.9733ZM3.21189 62.316C1.06867 62.316 0.00393677 60.8365 0.00393677 58.7681V50.9269C0.00393677 49.7824 0.917351 48.8557 2.04261 48.8557H2.19668V51.5382H5.90261V53.6765H2.19668V59.0165C2.19668 59.9237 2.59561 60.1805 3.45125 60.1805H5.90261V62.316H3.21189ZM15.9502 60.9537C14.8662 62.0089 13.5648 62.5365 12.0517 62.5365C10.5522 62.5365 9.25639 62.0089 8.17515 60.9537C7.0884 59.8958 6.54641 58.5503 6.54641 56.9285C6.54641 53.763 8.92899 51.3205 12.0517 51.3205C13.5511 51.3205 14.8497 51.8509 15.9392 52.9116C17.0342 53.978 17.5789 55.3206 17.5789 56.9285C17.5789 58.5503 17.0369 59.8958 15.9502 60.9537ZM26.2041 54.1315C25.8822 54.6786 25.6318 55.0722 25.4585 55.3095C25.2632 55.5663 25.0733 55.7728 24.8835 55.9152C26.4077 56.4149 26.9744 57.4868 26.9744 59.0835V62.316H26.8204C25.6951 62.316 24.7817 61.392 24.7817 60.2475V59.3012C24.7817 58.2684 24.325 57.5677 23.2465 57.5677H21.2546V62.316H21.1005C19.9753 62.316 19.0618 61.392 19.0618 60.2475V48.7719C19.0618 47.6274 19.9753 46.7007 21.1005 46.7007H21.2546V55.4072H21.9039C22.6137 55.4072 23.0842 55.1615 23.351 54.6926L25.1944 51.5382H27.6925L26.2041 54.1315ZM37.5255 60.9537C36.4415 62.0089 35.1401 62.5365 33.6269 62.5365C32.1275 62.5365 30.8344 62.0089 29.7504 60.9537C28.6637 59.8958 28.1217 58.5503 28.1217 56.9285C28.1217 53.763 30.5015 51.3205 33.6269 51.3205C35.1264 51.3205 36.425 51.8509 37.5145 52.9116C38.6095 53.978 39.1542 55.3206 39.1542 56.9285C39.1542 58.5503 38.6122 59.8958 37.5255 60.9537ZM35.9435 54.419C35.3382 53.777 34.5706 53.456 33.6269 53.456C31.6075 53.456 30.3997 54.9494 30.3997 56.9285C30.3997 58.8797 31.6378 60.3982 33.6269 60.3982C35.6161 60.3982 36.8514 58.8797 36.8514 56.9285C36.8514 55.8929 36.546 55.061 35.9435 54.419ZM14.3682 54.419C13.7629 53.777 12.9953 53.456 12.0517 53.456C10.0322 53.456 8.82444 54.9494 8.82444 56.9285C8.82444 58.8797 10.0625 60.3982 12.0517 60.3982C14.0408 60.3982 15.2789 58.8797 15.2789 56.9285C15.2789 55.8929 14.9707 55.061 14.3682 54.419ZM73.465 60.8923C72.4581 61.9894 71.165 62.5365 69.5913 62.5365C67.935 62.5365 66.5842 61.9559 65.5552 60.7918C64.5895 59.6892 64.108 58.3103 64.108 56.6633C64.108 53.7518 66.3228 51.3205 69.2364 51.3205C70.3616 51.3205 71.3383 51.5606 72.326 52.1077V54.5167C71.5337 53.9752 70.5405 53.456 69.561 53.456C67.5196 53.456 66.3008 54.8824 66.3008 56.9062C66.3008 58.902 67.5884 60.3982 69.6023 60.3982C70.5157 60.3982 71.2668 60.0521 71.8693 59.3543C72.4663 58.6592 72.7772 57.6403 72.7772 56.2697V48.7719C72.7772 47.6274 73.6879 46.7007 74.8159 46.7007H74.97V56.6186C74.97 58.3661 74.472 59.7953 73.465 60.8923ZM79.6581 50.2598C79.4297 50.5222 79.0996 50.6422 78.6952 50.6422C77.9441 50.6422 77.4048 50.0783 77.4048 49.3218C77.4048 48.5458 77.9331 48.021 78.6952 48.021C79.4297 48.021 79.9882 48.5737 79.9882 49.3218C79.9882 49.6903 79.8809 50.0085 79.6581 50.2598ZM90.8034 56.2697C90.8034 55.3904 90.476 54.6981 89.8185 54.1706C89.2242 53.696 88.4841 53.456 87.5872 53.456C85.6008 53.456 84.327 55.0303 84.327 56.9704C84.327 58.8406 85.6778 60.3982 87.5679 60.3982C88.8803 60.3982 89.5818 59.6194 90.3302 58.6508V61.4478C89.9478 61.7381 89.5103 62.0536 89.0619 62.2378C88.5886 62.4388 88.0246 62.5365 87.3726 62.5365C84.2169 62.5365 82.1342 59.8846 82.1342 56.8168C82.1342 55.2425 82.6157 53.9417 83.5869 52.9284C84.6158 51.8537 85.9667 51.3205 87.6202 51.3205C90.7539 51.3205 92.9962 53.1461 92.9962 56.4428V62.316H92.8421C91.7168 62.316 90.8034 61.392 90.8034 60.2475V56.2697ZM60.779 55.6389C60.5011 54.7679 60.1545 54.3408 59.3539 53.8886C57.4555 52.8111 55.5847 53.7267 54.7153 55.6305L60.779 55.6389ZM59.1063 62.503C57.7059 62.8045 56.3303 62.5728 54.9904 61.8135C53.6808 61.071 52.8059 59.9684 52.3657 58.5112C51.4798 55.5663 53.2984 52.2835 56.223 51.488C57.6729 51.0944 59.0622 51.2731 60.3828 52.0212C62.5783 53.2661 63.3762 55.1894 63.2359 57.671L54.4016 57.6515C54.5309 58.6648 55.15 59.4547 56.0166 59.946C56.897 60.4457 57.7086 60.5657 58.4597 60.3285C59.2934 60.0633 59.9702 59.3738 60.5204 58.729L62.3225 60.0605C61.5879 61.3948 60.5864 62.1848 59.1063 62.503ZM77.6002 51.5382H79.7929V62.316H79.6388C78.5136 62.316 77.6002 61.392 77.6002 60.2475V51.5382Z" fill="white"/>
</g>
<defs>
<clipPath id="clip0_56_561">
<rect width="93" height="67" fill="white"/>
</clipPath>
</defs>
</svg>
