<svg width="282" height="98" viewBox="0 0 282 98" fill="none" xmlns="http://www.w3.org/2000/svg">
<circle cx="5.5" cy="5.5" r="5.5" fill="#EEEEEE" fill-opacity="0.29"/>
<circle cx="5.5" cy="34.5" r="5.5" fill="#EEEEEE" fill-opacity="0.29"/>
<circle cx="5.5" cy="63.5" r="5.5" fill="#EEEEEE" fill-opacity="0.29"/>
<circle cx="5.5" cy="92.5" r="5.5" fill="#EEEEEE" fill-opacity="0.29"/>
<circle cx="28.5" cy="5.5" r="5.5" fill="#EEEEEE" fill-opacity="0.29"/>
<circle cx="28.5" cy="34.5" r="5.5" fill="#EEEEEE" fill-opacity="0.29"/>
<circle cx="28.5" cy="63.5" r="5.5" fill="#EEEEEE" fill-opacity="0.29"/>
<circle cx="28.5" cy="92.5" r="5.5" fill="#EEEEEE" fill-opacity="0.29"/>
<circle cx="54.5" cy="5.5" r="5.5" fill="#EEEEEE" fill-opacity="0.29"/>
<circle cx="54.5" cy="34.5" r="5.5" fill="#EEEEEE" fill-opacity="0.29"/>
<circle cx="54.5" cy="63.5" r="5.5" fill="#EEEEEE" fill-opacity="0.29"/>
<circle cx="54.5" cy="92.5" r="5.5" fill="#EEEEEE" fill-opacity="0.29"/>
<circle cx="80.5" cy="5.5" r="5.5" fill="#EEEEEE" fill-opacity="0.29"/>
<circle cx="80.5" cy="34.5" r="5.5" fill="#EEEEEE" fill-opacity="0.29"/>
<circle cx="80.5" cy="63.5" r="5.5" fill="#EEEEEE" fill-opacity="0.29"/>
<circle cx="80.5" cy="92.5" r="5.5" fill="#EEEEEE" fill-opacity="0.29"/>
<circle cx="103.5" cy="5.5" r="5.5" fill="#EEEEEE" fill-opacity="0.29"/>
<circle cx="103.5" cy="34.5" r="5.5" fill="#EEEEEE" fill-opacity="0.29"/>
<circle cx="103.5" cy="63.5" r="5.5" fill="#EEEEEE" fill-opacity="0.29"/>
<circle cx="103.5" cy="92.5" r="5.5" fill="#EEEEEE" fill-opacity="0.29"/>
<circle cx="126.5" cy="5.5" r="5.5" fill="#EEEEEE" fill-opacity="0.29"/>
<circle cx="126.5" cy="34.5" r="5.5" fill="#EEEEEE" fill-opacity="0.29"/>
<circle cx="126.5" cy="63.5" r="5.5" fill="#EEEEEE" fill-opacity="0.29"/>
<circle cx="126.5" cy="92.5" r="5.5" fill="#EEEEEE" fill-opacity="0.29"/>
<circle cx="152.5" cy="5.5" r="5.5" fill="#EEEEEE" fill-opacity="0.29"/>
<circle cx="152.5" cy="34.5" r="5.5" fill="#EEEEEE" fill-opacity="0.29"/>
<circle cx="152.5" cy="63.5" r="5.5" fill="#EEEEEE" fill-opacity="0.29"/>
<circle cx="152.5" cy="92.5" r="5.5" fill="#EEEEEE" fill-opacity="0.29"/>
<circle cx="178.5" cy="5.5" r="5.5" fill="#EEEEEE" fill-opacity="0.29"/>
<circle cx="178.5" cy="34.5" r="5.5" fill="#EEEEEE" fill-opacity="0.29"/>
<circle cx="178.5" cy="63.5" r="5.5" fill="#EEEEEE" fill-opacity="0.29"/>
<circle cx="178.5" cy="92.5" r="5.5" fill="#EEEEEE" fill-opacity="0.29"/>
<circle cx="201.5" cy="5.5" r="5.5" fill="#EEEEEE" fill-opacity="0.29"/>
<circle cx="201.5" cy="34.5" r="5.5" fill="#EEEEEE" fill-opacity="0.29"/>
<circle cx="201.5" cy="63.5" r="5.5" fill="#EEEEEE" fill-opacity="0.29"/>
<circle cx="201.5" cy="92.5" r="5.5" fill="#EEEEEE" fill-opacity="0.29"/>
<circle cx="224.5" cy="5.5" r="5.5" fill="#EEEEEE" fill-opacity="0.29"/>
<circle cx="224.5" cy="34.5" r="5.5" fill="#EEEEEE" fill-opacity="0.29"/>
<circle cx="224.5" cy="63.5" r="5.5" fill="#EEEEEE" fill-opacity="0.29"/>
<circle cx="224.5" cy="92.5" r="5.5" fill="#EEEEEE" fill-opacity="0.29"/>
<circle cx="250.5" cy="5.5" r="5.5" fill="#EEEEEE" fill-opacity="0.29"/>
<circle cx="250.5" cy="34.5" r="5.5" fill="#EEEEEE" fill-opacity="0.29"/>
<circle cx="250.5" cy="63.5" r="5.5" fill="#EEEEEE" fill-opacity="0.29"/>
<circle cx="250.5" cy="92.5" r="5.5" fill="#EEEEEE" fill-opacity="0.29"/>
<circle cx="276.5" cy="5.5" r="5.5" fill="#EEEEEE" fill-opacity="0.29"/>
<circle cx="276.5" cy="34.5" r="5.5" fill="#EEEEEE" fill-opacity="0.29"/>
<circle cx="276.5" cy="63.5" r="5.5" fill="#EEEEEE" fill-opacity="0.29"/>
<circle cx="276.5" cy="92.5" r="5.5" fill="#EEEEEE" fill-opacity="0.29"/>
</svg>
