<svg width="31" height="31" viewBox="0 0 31 31" fill="none" xmlns="http://www.w3.org/2000/svg">
<path d="M30.4127 11.5523C30.6488 11.3646 31 11.5402 31 11.8369V24.2188C31 25.8232 29.6982 27.125 28.0938 27.125H2.90625C1.30176 27.125 0 25.8232 0 24.2188V11.843C0 11.5402 0.345117 11.3707 0.587305 11.5584C1.94355 12.6119 3.7418 13.95 9.91758 18.4365C11.1951 19.3689 13.3506 21.3307 15.5 21.3186C17.6615 21.3367 19.8594 19.3326 21.0885 18.4365C27.2643 13.95 29.0564 12.6059 30.4127 11.5523ZM15.5 19.375C16.9047 19.3992 18.927 17.607 19.9441 16.8684C27.9787 11.0377 28.5902 10.5291 30.443 9.07598C30.7941 8.80352 31 8.37969 31 7.93164V6.78125C31 5.17676 29.6982 3.875 28.0938 3.875H2.90625C1.30176 3.875 0 5.17676 0 6.78125V7.93164C0 8.37969 0.205859 8.79746 0.557031 9.07598C2.40977 10.523 3.02129 11.0377 11.0559 16.8684C12.073 17.607 14.0953 19.3992 15.5 19.375Z" fill="white"/>
</svg>
