<svg width="50" height="58" viewBox="0 0 50 58" fill="none" xmlns="http://www.w3.org/2000/svg">
<path d="M1.74316 47.8027L2.69531 51.9238L2.90039 53.0713L3.11035 51.9482L3.9209 47.8027H5.50781L6.3623 51.9238L6.58203 53.0713L6.80176 51.9678L7.76367 47.8027H9.29199L7.26562 55H5.83008L4.96094 50.791L4.70703 49.3994L4.45312 50.791L3.58398 55H2.1875L0.146484 47.8027H1.74316ZM13.0273 49.541C13.3561 49.541 13.654 49.598 13.9209 49.7119C14.1911 49.8258 14.4124 50 14.585 50.2344C14.7314 50.4329 14.821 50.638 14.8535 50.8496C14.8861 51.0579 14.9023 51.3997 14.9023 51.875V55H13.4814V51.7627C13.4814 51.4762 13.4326 51.2451 13.335 51.0693C13.208 50.8219 12.9671 50.6982 12.6123 50.6982C12.2445 50.6982 11.9645 50.8219 11.7725 51.0693C11.5837 51.3135 11.4893 51.6634 11.4893 52.1191V55H10.1025V47.8271H11.4893V50.3711C11.6911 50.0618 11.9238 49.847 12.1875 49.7266C12.4544 49.6029 12.7344 49.541 13.0273 49.541ZM19.1406 52.4121C19.0527 52.4674 18.9632 52.513 18.8721 52.5488C18.7842 52.5814 18.6621 52.6123 18.5059 52.6416L18.1934 52.7002C17.9004 52.7523 17.6904 52.8158 17.5635 52.8906C17.3486 53.0176 17.2412 53.2145 17.2412 53.4814C17.2412 53.7191 17.3063 53.8916 17.4365 53.999C17.57 54.1032 17.7311 54.1553 17.9199 54.1553C18.2194 54.1553 18.4945 54.0674 18.7451 53.8916C18.999 53.7158 19.1309 53.3952 19.1406 52.9297V52.4121ZM18.2959 51.7627C18.5531 51.7301 18.737 51.6895 18.8477 51.6406C19.0462 51.556 19.1455 51.4242 19.1455 51.2451C19.1455 51.027 19.069 50.8773 18.916 50.7959C18.7663 50.7113 18.5449 50.6689 18.252 50.6689C17.9232 50.6689 17.6904 50.7503 17.5537 50.9131C17.4561 51.0335 17.391 51.1963 17.3584 51.4014H16.0156C16.0449 50.9359 16.1751 50.5534 16.4062 50.2539C16.7741 49.7852 17.4056 49.5508 18.3008 49.5508C18.8835 49.5508 19.401 49.6663 19.8535 49.8975C20.306 50.1286 20.5322 50.5648 20.5322 51.2061V53.6475C20.5322 53.8167 20.5355 54.0218 20.542 54.2627C20.5518 54.445 20.5794 54.5687 20.625 54.6338C20.6706 54.6989 20.7389 54.7526 20.8301 54.7949V55H19.3164C19.2741 54.8926 19.2448 54.7917 19.2285 54.6973C19.2122 54.6029 19.1992 54.4954 19.1895 54.375C18.9974 54.5833 18.776 54.7607 18.5254 54.9072C18.2259 55.0798 17.8874 55.166 17.5098 55.166C17.028 55.166 16.6292 55.0293 16.3135 54.7559C16.001 54.4792 15.8447 54.0885 15.8447 53.584C15.8447 52.9297 16.097 52.4561 16.6016 52.1631C16.8783 52.0036 17.2852 51.8896 17.8223 51.8213L18.2959 51.7627ZM21.2256 50.7178V49.7266H21.9678V48.2422H23.3447V49.7266H24.209V50.7178H23.3447V53.5303C23.3447 53.7484 23.3724 53.8851 23.4277 53.9404C23.4831 53.9925 23.6523 54.0186 23.9355 54.0186C23.9779 54.0186 24.0218 54.0186 24.0674 54.0186C24.1162 54.0153 24.1634 54.012 24.209 54.0088V55.0488L23.5498 55.0732C22.8923 55.096 22.443 54.9821 22.2021 54.7314C22.0459 54.5719 21.9678 54.3262 21.9678 53.9941V50.7178H21.2256ZM26.1865 53.3008C26.2158 53.5482 26.2793 53.724 26.377 53.8281C26.5495 54.0137 26.8685 54.1064 27.334 54.1064C27.6074 54.1064 27.8239 54.0658 27.9834 53.9844C28.1462 53.903 28.2275 53.7809 28.2275 53.6182C28.2275 53.4619 28.1624 53.3431 28.0322 53.2617C27.902 53.1803 27.4186 53.0404 26.582 52.8418C25.9798 52.6921 25.555 52.5049 25.3076 52.2803C25.0602 52.0589 24.9365 51.7399 24.9365 51.3232C24.9365 50.8317 25.1286 50.4102 25.5127 50.0586C25.9001 49.7038 26.4437 49.5264 27.1436 49.5264C27.8076 49.5264 28.348 49.6598 28.7646 49.9268C29.1846 50.1904 29.4255 50.6478 29.4873 51.2988H28.0957C28.0762 51.1198 28.0257 50.9782 27.9443 50.874C27.7913 50.6852 27.5309 50.5908 27.1631 50.5908C26.8604 50.5908 26.6439 50.638 26.5137 50.7324C26.3867 50.8268 26.3232 50.9375 26.3232 51.0645C26.3232 51.224 26.3916 51.3395 26.5283 51.4111C26.665 51.486 27.1484 51.6146 27.9785 51.7969C28.5319 51.9271 28.9469 52.124 29.2236 52.3877C29.4971 52.6546 29.6338 52.9883 29.6338 53.3887C29.6338 53.916 29.4368 54.3473 29.043 54.6826C28.6523 55.0146 28.0469 55.1807 27.2266 55.1807C26.39 55.1807 25.7715 55.0049 25.3711 54.6533C24.974 54.2985 24.7754 53.8477 24.7754 53.3008H26.1865ZM32.749 52.2803H34.5752L33.6768 49.4482L32.749 52.2803ZM32.8418 47.8027H34.541L37.0898 55H35.459L34.9951 53.5205H32.3438L31.8457 55H30.2734L32.8418 47.8027ZM41.5625 52.3389C41.5625 51.9287 41.4681 51.5658 41.2793 51.25C41.0938 50.9342 40.791 50.7764 40.3711 50.7764C39.8665 50.7764 39.5199 51.0156 39.3311 51.4941C39.2334 51.748 39.1846 52.0703 39.1846 52.4609C39.1846 53.0794 39.349 53.514 39.6777 53.7646C39.873 53.9111 40.1042 53.9844 40.3711 53.9844C40.7585 53.9844 41.0531 53.8346 41.2549 53.5352C41.46 53.2357 41.5625 52.8369 41.5625 52.3389ZM40.7715 49.5605C41.3932 49.5605 41.9189 49.79 42.3486 50.249C42.7816 50.708 42.998 51.3818 42.998 52.2705C42.998 53.208 42.7865 53.9225 42.3633 54.4141C41.9434 54.9056 41.4014 55.1514 40.7373 55.1514C40.3141 55.1514 39.9626 55.0456 39.6826 54.834C39.5296 54.7168 39.3799 54.5459 39.2334 54.3213V57.0947H37.8564V49.6777H39.1895V50.4639C39.3392 50.2327 39.4987 50.0505 39.668 49.917C39.9772 49.6794 40.3451 49.5605 40.7715 49.5605ZM47.6758 52.3389C47.6758 51.9287 47.5814 51.5658 47.3926 51.25C47.207 50.9342 46.9043 50.7764 46.4844 50.7764C45.9798 50.7764 45.6331 51.0156 45.4443 51.4941C45.3467 51.748 45.2979 52.0703 45.2979 52.4609C45.2979 53.0794 45.4622 53.514 45.791 53.7646C45.9863 53.9111 46.2174 53.9844 46.4844 53.9844C46.8717 53.9844 47.1663 53.8346 47.3682 53.5352C47.5732 53.2357 47.6758 52.8369 47.6758 52.3389ZM46.8848 49.5605C47.5065 49.5605 48.0322 49.79 48.4619 50.249C48.8949 50.708 49.1113 51.3818 49.1113 52.2705C49.1113 53.208 48.8997 53.9225 48.4766 54.4141C48.0566 54.9056 47.5146 55.1514 46.8506 55.1514C46.4274 55.1514 46.0758 55.0456 45.7959 54.834C45.6429 54.7168 45.4932 54.5459 45.3467 54.3213V57.0947H43.9697V49.6777H45.3027V50.4639C45.4525 50.2327 45.612 50.0505 45.7812 49.917C46.0905 49.6794 46.4583 49.5605 46.8848 49.5605Z" fill="#40C351"/>
<path fill-rule="evenodd" clip-rule="evenodd" d="M6.56372 40.5966L9.08935 31.3762C7.53122 28.6781 6.71185 25.6162 6.71278 22.4803C6.71747 12.6694 14.7012 4.6875 24.5131 4.6875C29.2747 4.68937 33.7428 6.54281 37.1037 9.90562C40.4637 13.2694 42.3143 17.7394 42.3125 22.4944C42.3087 32.3053 34.3231 40.2881 24.5131 40.2881C24.5122 40.2881 24.5131 40.2881 24.5131 40.2881H24.5056C21.5272 40.2872 18.5993 39.54 15.9997 38.1216L6.56372 40.5966Z" fill="white"/>
<path fill-rule="evenodd" clip-rule="evenodd" d="M6.5638 41.0653C6.44005 41.0653 6.32005 41.0166 6.23099 40.9266C6.1138 40.8075 6.06786 40.6341 6.11192 40.4738L8.58599 31.44C7.05224 28.7156 6.24317 25.6219 6.24505 22.4813C6.2488 12.4106 14.4435 4.21875 24.5132 4.21875C29.3976 4.22063 33.9866 6.12281 37.4357 9.57469C40.8847 13.0275 42.7832 17.6156 42.7813 22.4944C42.7776 32.5641 34.5819 40.7569 24.5132 40.7569C21.5235 40.7559 18.5657 40.0181 15.9407 38.6222L6.68286 41.0494C6.64349 41.0606 6.60411 41.0653 6.5638 41.0653Z" fill="white"/>
<path fill-rule="evenodd" clip-rule="evenodd" d="M24.5132 4.6875C29.2748 4.68938 33.7429 6.54281 37.1039 9.90563C40.4639 13.2694 42.3145 17.7394 42.3126 22.4944C42.3089 32.3053 34.3232 40.2881 24.5132 40.2881H24.5057C21.5273 40.2872 18.5995 39.54 15.9998 38.1216L6.56386 40.5966L9.08949 31.3763C7.53136 28.6781 6.71199 25.6163 6.71292 22.4803C6.71761 12.6694 14.7014 4.6875 24.5132 4.6875ZM24.5132 3.75C14.1857 3.75 5.78011 12.1519 5.77542 22.4803C5.77449 25.6369 6.57136 28.7475 8.08261 31.5009L5.65917 40.35C5.57105 40.6734 5.66105 41.0184 5.8973 41.2566C6.07542 41.4366 6.31636 41.535 6.56386 41.535C6.64355 41.535 6.72324 41.5247 6.80199 41.5041L15.8836 39.1228C18.5348 40.4991 21.5067 41.2256 24.5057 41.2266C34.8407 41.2266 43.2464 32.8238 43.2511 22.4953C43.2529 17.49 41.3057 12.7838 37.7686 9.24375C34.2295 5.70281 29.5223 3.75188 24.5132 3.75Z" fill="#CFD8DC"/>
<path fill-rule="evenodd" clip-rule="evenodd" d="M34.9775 12.0302C32.1838 9.23461 28.4703 7.6943 24.5178 7.69336C16.3578 7.69336 9.72128 14.3271 9.71753 22.4815C9.71659 25.2762 10.4985 27.9968 11.9797 30.3527L12.3322 30.9124L10.8369 36.3696L16.4366 34.9015L16.9775 35.2221C19.2482 36.5702 21.8525 37.2827 24.5075 37.2837H24.5132C32.6675 37.2837 39.3041 30.649 39.3069 22.4937C39.3078 18.5421 37.7713 14.8259 34.9775 12.0302Z" fill="#40C351"/>
<path fill-rule="evenodd" clip-rule="evenodd" d="M20.0638 15.0418C19.731 14.3012 19.3804 14.2862 19.0626 14.273C18.8029 14.2618 18.5067 14.2627 18.2104 14.2627C17.9142 14.2627 17.4323 14.3743 17.0245 14.8196C16.6167 15.2649 15.4673 16.3402 15.4673 18.5283C15.4673 20.7165 17.061 22.8315 17.2832 23.1277C17.5054 23.424 20.3601 28.058 24.8807 29.8412C28.6373 31.3224 29.4023 31.028 30.2179 30.954C31.0335 30.8799 32.8495 29.8787 33.2198 28.8399C33.5901 27.8012 33.5901 26.9115 33.4795 26.7258C33.3679 26.5402 33.0717 26.4296 32.6273 26.2065C32.1829 25.9833 29.9957 24.908 29.5879 24.7599C29.1801 24.6118 28.8838 24.5377 28.5867 24.983C28.2904 25.4274 27.4382 26.4296 27.1785 26.7258C26.9188 27.023 26.6592 27.0605 26.2148 26.8374C25.7704 26.6143 24.3379 26.1455 22.6382 24.6305C21.3163 23.4521 20.4238 21.9962 20.1642 21.5508C19.9045 21.1065 20.136 20.8655 20.3592 20.6433C20.5588 20.4437 20.8035 20.124 21.0267 19.8643C21.2488 19.6046 21.3229 19.419 21.471 19.1227C21.6192 18.8255 21.5451 18.5658 21.4335 18.3437C21.3238 18.1205 20.4595 15.9212 20.0638 15.0418Z" fill="white"/>
</svg>
