<svg width="31" height="35" viewBox="0 0 31 35" fill="none" xmlns="http://www.w3.org/2000/svg">
<path d="M15.5 8.39453C10.4694 8.39453 6.37991 12.4346 6.37299 17.4043C6.37299 19.1064 6.85737 20.7676 7.77076 22.1963L7.98527 22.5381L7.06495 25.8604L10.5179 24.9648L10.85 25.1631C12.2478 25.9834 13.8531 26.4209 15.4931 26.4209H15.5C20.5237 26.4209 24.7239 22.3809 24.7239 17.4111C24.7239 15.0049 23.6721 12.7422 21.9491 11.04C20.2192 9.33105 17.9357 8.39453 15.5 8.39453ZM20.8627 21.2734C20.6344 21.9092 19.5411 22.4834 19.0152 22.5586C18.1433 22.6885 17.4652 22.6201 15.7283 21.8818C12.9812 20.7061 11.1821 17.9717 11.0437 17.7939C10.9054 17.6162 9.92277 16.3242 9.92277 14.9912C9.92277 13.6582 10.6286 13.002 10.8846 12.7285C11.1337 12.4551 11.4312 12.3867 11.6181 12.3867C11.798 12.3867 11.9848 12.3867 12.144 12.3936C12.31 12.4004 12.5384 12.332 12.7598 12.8584C12.9882 13.3984 13.5348 14.7314 13.604 14.8682C13.6732 15.0049 13.7217 15.1621 13.6248 15.3398C13.0989 16.3789 12.5384 16.3379 12.8221 16.8164C13.8808 18.6143 14.9395 19.2363 16.5518 20.0361C16.8286 20.1729 16.9877 20.1523 17.1469 19.9678C17.306 19.79 17.8319 19.1748 18.0118 18.9082C18.1917 18.6348 18.3786 18.6826 18.6277 18.7715C18.8768 18.8604 20.2261 19.5166 20.5029 19.6533C20.7797 19.79 20.9596 19.8584 21.0288 19.9678C21.0911 20.0977 21.0911 20.6445 20.8627 21.2734ZM27.6786 2.1875H3.32143C1.48772 2.1875 0 3.65723 0 5.46875V29.5312C0 31.3428 1.48772 32.8125 3.32143 32.8125H27.6786C29.5123 32.8125 31 31.3428 31 29.5312V5.46875C31 3.65723 29.5123 2.1875 27.6786 2.1875ZM15.4931 28.2461C13.6525 28.2461 11.8464 27.7881 10.248 26.9268L4.42857 28.4375L5.98549 22.8184C5.02366 21.1777 4.51853 19.3115 4.51853 17.3975C4.52545 11.4229 9.44531 6.5625 15.4931 6.5625C18.427 6.5625 21.181 7.69043 23.2569 9.74121C25.3259 11.792 26.5714 14.5127 26.5714 17.4111C26.5714 23.3857 21.5408 28.2461 15.4931 28.2461Z" fill="white"/>
</svg>
